<svg preserveAspectRatio="none" overflow="visible" style="display: block;" width="73.4043" height="29.5859" viewBox="0 0 73.4043 29.5859" fill="none" xmlns="http://www.w3.org/2000/svg">
<g id="Group 61">
<path id="Vector" d="M25.6703 2.66349V26.9224C25.6703 28.3935 24.4706 29.5859 22.9906 29.5859H17.7245C16.7837 29.5859 15.9151 29.0874 15.4444 28.2777L0.181737 1.99973C-0.33444 1.11109 0.310326 0 1.34268 0H22.9906C24.4706 0 25.6703 1.19248 25.6703 2.66349Z" fill="#EFF4F5"/>
<path id="Vector_2" d="M73.4043 26.9224V2.66349C73.4043 1.19248 72.2046 0 70.7246 0H65.4585C64.5177 0 63.6491 0.498575 63.1785 1.30823L47.9151 27.5862C47.399 28.4748 48.0443 29.5859 49.0767 29.5859H70.7246C72.2046 29.5859 73.4043 28.3935 73.4043 26.9224Z" fill="#EFF4F5"/>
<path id="Vector_3" d="M31.0609 2.66349V26.9224C31.0609 28.3935 32.2607 29.5859 33.7406 29.5859H39.0067C39.9475 29.5859 40.8161 29.0874 41.2868 28.2777L56.5495 1.99973C57.0657 1.11109 56.4203 0 55.3879 0H33.74C32.2601 0 31.0603 1.19248 31.0603 2.66349H31.0609Z" fill="#EFF4F5"/>
</g>
</svg>
